PathFileType	4	(X/Y/Z)	/Users/niels/Desktop/University/Third Semester/Perception and Action/Exam/Gymnastics Motion Tracking/Code for Gym Tracking/Analyzed Data/Webcam_Backflip/id2005_1_trajectory_Sports2D/id2005_1_trajectory_Sports2D_px_person00.trc
DataRate	CameraRate	NumFrames	NumMarkers	Units	OrigDataRate	OrigDataStartFrame	OrigNumFrames
29.77272727272727	29.77272727272727	14	22	m	29.77272727272727	0	132
Frame#	Time	Hip			RHip			RKnee			RAnkle			RBigToe			RSmallToe			RHeel			LHip			LKnee			LAnkle			LBigToe			LSmallToe			LHeel			Neck			Head			Nose			RShoulder			RElbow			RWrist			LShoulder			LElbow			LWrist		
		X1	Y1	Z1	X2	Y2	Z2	X3	Y3	Z3	X4	Y4	Z4	X5	Y5	Z5	X6	Y6	Z6	X7	Y7	Z7	X8	Y8	Z8	X9	Y9	Z9	X10	Y10	Z10	X11	Y11	Z11	X12	Y12	Z12	X13	Y13	Z13	X14	Y14	Z14	X15	Y15	Z15	X16	Y16	Z16	X17	Y17	Z17	X18	Y18	Z18	X19	Y19	Z19	X20	Y20	Z20	X21	Y21	Z21	X22	Y22	Z22
0	0.0	0.918613769542116	-1.1214296875107015	0.0			0.0			0.0			0.0			0.0			0.0			0.0			0.0	1.3977199532437647	-0.7801553307005085	0.0			0.0			0.0			0.0			0.0	0.9430982513314967	-0.7499679592396379	0.0	0.9678090616556412	-0.18505150524836925	0.0	0.9843009713384661	-0.41186326385917466	0.0	0.49774941883740426	-0.952012972242678	0.0	0.29561307020689415	-1.05922309965398	0.0			0.0	1.4008293759413968	-0.9149114225658281	0.0	1.569890967347707	-1.0715771097957105	0.0			0.0
1	0.03358778625954199	0.9186137695425592	-1.1214296875111354	0.0			0.0			0.0			0.0			0.0			0.0			0.0			0.0	1.397722372016999	-0.780151524680856	0.0			0.0			0.0			0.0			0.0	0.9421333709419961	-0.7461312447246851	0.0	0.9607281489145204	-0.18385494703702518	0.0	0.9768751776809994	-0.41464894794179813	0.0	0.4924763326370416	-0.9470076259089266	0.0	0.2763375266866944	-1.0642901381152399	0.0			0.0	1.3970911093406344	-0.9106342572877812	0.0	1.599005472161971	-1.0723015818938968	0.0			0.0
2	0.06717557251908397	0.9186137695362407	-1.1214296875049083	0.0			0.0			0.0			0.0			0.0			0.0			0.0			0.0	1.3977252256384018	-0.7801495423791781	0.0			0.0			0.0			0.0			0.0	0.9409726933645467	-0.7426696348755352	0.0	0.9535480275681384	-0.1824971052701924	0.0	0.9695200425150262	-0.41669433157519914	0.0	0.4880137776487568	-0.9425906956391655	0.0	0.2602490503966887	-1.068160116453758	0.0			0.0	1.3937929011479084	-0.9065342107802311	0.0	1.6149748383743014	-1.07289625306324	0.0			0.0
3	0.10076335877862597	0.9186137695176719	-1.121429687486616	0.0			0.0			0.0			0.0			0.0			0.0			0.0			0.0	1.3977272674434607	-0.7801532736813136	0.0			0.0			0.0			0.0			0.0	0.9395459282219747	-0.7396791574251809	0.0	0.9463544610830357	-0.1810607815687905	0.0	0.9622163140547865	-0.4176369357316734	0.0	0.48475525497134403	-0.9391788820203888	0.0	0.2501568668763724	-1.0702529920600634	0.0			0.0	1.3910123449711986	-0.9026460950093841	0.0	1.6145081124374452	-1.073170164668818	0.0			0.0
4	0.13435114503816795	0.9186137694815645	-1.1214296874510523	0.0			0.0			0.0			0.0			0.0			0.0			0.0			0.0	1.3977260080538816	-0.7801684071190148	0.0			0.0			0.0			0.0			0.0	0.9379701148463533	-0.7370840958390441	0.0	0.9393911135561485	-0.17981012407749417	0.0	0.9550486924814742	-0.4175817050821369	0.0	0.48249332422210683	-0.9369112350300406	0.0	0.24675660770891505	-1.0708930321025671	0.0			0.0	1.38855069572472	-0.8989479003971279	0.0	1.6034530205618533	-1.0730561429683076	0.0			0.0
5	0.16793893129770993	0.9186137694265712	-1.1214296873968947	0.0			0.0			0.0			0.0			0.0			0.0			0.0			0.0	1.397717574794881	-0.780201270175156	0.0			0.0			0.0			0.0			0.0	0.9363757536355273	-0.7348711611485187	0.0	0.9328979628735975	-0.17892091775317692	0.0	0.9483945401023492	-0.4168201069602807	0.0	0.48073023754792443	-0.9356493214971255	0.0	0.24766032594529208	-1.0710553053769627	0.0			0.0	1.3861258514199577	-0.8954728662199861	0.0	1.5891170404960124	-1.072809623477478	0.0			0.0
6	0.20152671755725193	0.9186137693617732	-1.1214296873330933	0.0			0.0			0.0			0.0			0.0			0.0			0.0			0.0	1.3976972753070145	-0.7802556023163721	0.0			0.0			0.0			0.0			0.0	0.9346902267152066	-0.7330647591136973	0.0	0.9270721460825616	-0.17834222654205104	0.0	0.9426797062766293	-0.41549749150119564	0.0	0.47900227713300586	-0.9352399379295736	0.0	0.2493485736028332	-1.0716842066925747	0.0			0.0	1.3834774799722738	-0.8923516763077427	0.0	1.5756800083761544	-1.0728959647933236	0.0			0.0
7	0.2351145038167939	0.9186137693155774	-1.1214296872876326	0.0			0.0			0.0			0.0			0.0			0.0			0.0			0.0	1.3976614986532656	-0.7803264293724327	0.0			0.0			0.0			0.0			0.0	0.9326794820622539	-0.7316153232880556	0.0	0.9220405298721274	-0.17791924792971128	0.0	0.9379848573606522	-0.41351084922546516	0.0	0.47688431057526764	-0.9356716491814698	0.0	0.2493054192455237	-1.0731981519715852	0.0			0.0	1.3804318402514706	-0.8897333556310586	0.0	1.5644053432713485	-1.0737016259267482	0.0			0.0
8	0.2687022900763359	0.91861376934464	-1.121429687316316	0.0			0.0			0.0			0.0			0.0			0.0			0.0			0.0	1.3976116138419916	-0.7803909199243978	0.0			0.0			0.0			0.0			0.0	0.9301759003486288	-0.7304312706879879	0.0	0.9177280498151134	-0.17761315912969733	0.0	0.9340399224692795	-0.41073405737311397	0.0	0.4741117419089927	-0.9368250272630436	0.0	0.2461173004270725	-1.075470928010566	0.0			0.0	1.376913700499045	-0.8875500760137066	0.0	1.5550715843854692	-1.0752877527877203	0.0			0.0
9	0.3022900763358779	0.9186137695370178	-1.1214296875058634	0.0			0.0			0.0			0.0			0.0			0.0			0.0			0.0	1.3975601588258089	-0.7803979072700061	0.0			0.0			0.0			0.0			0.0	0.9271732174814243	-0.729454765032517	0.0	0.9137386174686642	-0.17759701315651907	0.0	0.9304273130148587	-0.407375235330941	0.0	0.4707853512843085	-0.9382519075713787	0.0	0.23887891341834136	-1.0779846543988558	0.0			0.0	1.372946441233334	-0.885337387302493	0.0	1.5471509796995373	-1.0772797583152798	0.0			0.0
10	0.33587786259541985	0.9186137699992774	-1.1214296879612045	0.0			0.0			0.0			0.0			0.0			0.0			0.0			0.0	1.3975385327734342	-0.7802610275863257	0.0			0.0			0.0			0.0			0.0	0.9237366955282512	-0.7286924794285538	0.0	0.9094341358176984	-0.17806773084894684	0.0	0.926643195907763	-0.4040811545607213	0.0	0.4672303368064898	-0.9393766180091944	0.0	0.2274498948833179	-1.0800712542863886	0.0			0.0	1.3687338343354718	-0.882616463184906	0.0	1.5404090924980467	-1.0789855805156305	0.0			0.0
11	0.36946564885496186	0.9186137708131692	-1.121429688762797	0.0			0.0			0.0			0.0			0.0			0.0			0.0			0.0	1.3976033020478145	-0.7798651033554052	0.0			0.0			0.0			0.0			0.0	0.9199430823460386	-0.7281845938025601	0.0	0.9043390384295618	-0.17886436086173385	0.0	0.922240578421434	-0.40156380041476136	0.0	0.46362824211811354	-0.9400193007687718	0.0	0.21395965597329933	-1.0812139763726856	0.0			0.0	1.364731586338473	-0.8795909167137965	0.0	1.5348902714815016	-1.0797449108475259	0.0			0.0
12	0.40305343511450387	0.9186137719468928	-1.1214296898792255	0.0			0.0			0.0			0.0			0.0			0.0			0.0			0.0	1.3978350261268784	-0.7791004406355888	0.0			0.0			0.0			0.0			0.0	0.9159518963161272	-0.7279949307485577	0.0	0.8985543154748896	-0.17930879078768786	0.0	0.9171466457646756	-0.4000703444884444	0.0	0.45976819236644906	-0.9407229852452141	0.0	0.20365780786767967	-1.0811609850567305	0.0			0.0	1.361557705321522	-0.8772561950099623	0.0	1.530819401518809	-1.0793083929321419	0.0			0.0
13	0.4366412213740458	0.9186137731143595	-1.1214296910286	0.0			0.0			0.0			0.0			0.0			0.0			0.0			0.0	1.3983272335166406	-0.777941505486033	0.0			0.0			0.0			0.0			0.0	0.9120599457865677	-0.7281992961946999	0.0	0.8926553353471416	-0.17863542618078135	0.0	0.9117080898637202	-0.3992918408460968	0.0	0.4552816791111029	-0.9423100702748779	0.0	0.20167688471255377	-1.0798928161459975	0.0			0.0	1.3597287146746366	-0.8767128024984522	0.0	1.5285858927261733	-1.07792398395211	0.0			0.0
